.
 
http://www.scenetime.com    -   SceneTime [ We been having it ] !!!


How come you press harder on a remote control when you know the battery is dead? so you better seed to get speed ;)

        Seed back for speed


...................................NFO:.................................................::::::::::::::Enjoy:Another:Release:From:TDP::::::::::::::

[IMG]http://lookpic.com/c1/i2/3621/sblUKWNB.jpeg[/IMG]

TiTLE.........: Iron.Eagle.2.1988.DVDRip.XviD.AC3-TDP
RUNTiME.......: 1h 36mn
FORMAT........: XviD
RAR COUNT.....: 101x15MB
SOURCE .......: DVD9
GENRE.........: Action | Drama | Romance
AUDIO.........: English 
SUBTITLES.....: None
SAMPEL........: YES
RELEASE DATE..: 12-07-2011

IMDB : http://www.imdb.com/title/tt0095382/

Plot :
Chappy Sinclair is called to gather together a mixed Soviet/U.S. strike force that will 
perform a surgical strike on a massively defended nuclear missile site in the Middle East. 
Chappy finds that getting the Soviet and U.S. Pilots to cooperate is only the most minor of 
his problems as he discovers someone in the Pentagon is actively sabotaging his mission. 
As they begin their assault, Chappy finds that a nuclear strike has been ordered should 
they fail, which will catch his forces on the ground next to ground zero. 


General

Complete name                    : Iron.Eagle.2.1988.DVDRip.XviD.AC3-TDP
Format                           : AVI
Format/Info                      : Audio Video Interleave
Format profile                   : OpenDML
File size                        : 1.41 GiB
Duration                         : 1h 36mn
Overall bit rate                 : 2 095 Kbps
Writing application              : Lavf52.78.4


Video

Format                           : MPEG-4 Visual
Format profile                   : Advanced Simple@L5
Format settings, BVOP            : 2
Format settings, QPel            : No
Format settings, GMC             : No warppoints
Format settings, Matrix          : Default (H.263)
Muxing mode                      : Packed bitstream
Codec ID                         : XVID
Codec ID/Hint                    : XviD
Duration                         : 1h 36mn
Bit rate                         : 1 635 Kbps
Width                            : 720 pixels
Height                           : 406 pixels
Display aspect ratio             : 16:9
Frame rate                       : 25.000 fps
Color space                      : YUV
Chroma subsampling               : 4:2:0
Bit depth                        : 8 bits
Scan type                        : Progressive
Compression mode                 : Lossy
Bits/(Pixel*Frame)               : 0.224
Stream size                      : 1.10 GiB (78%)
Writing library                  : XviD 1.2.1 (UTC 2008-12-04)

Audio

Format                           : AC-3
Format/Info                      : Audio Coding 3
Mode extension                   : CM (complete main)
Codec ID                         : 2000
Duration                         : 1h 36mn
Bit rate mode                    : Constant
Bit rate                         : 448 Kbps
Channel(s)                       : 6 channels
Channel positions                : Front: L C R, Side: L R, LFE
Sampling rate                    : 48.0 KHz
Bit depth                        : 16 bits
Compression mode                 : Lossy
Stream size                      : 300.3 MiB (22%)
Alignment                        : Aligned on interleaves
Interleave, duration             : 123 ms (3.07 video frames)
Interleave, preload duration     : 32 ms


GREETS:

IMAGiNE,FLAWL3SS,ViSiON,FUSiON,Rx,CM8,SecretMyth,BirdFlu,ELEKTRI4KA,Serenity,INK,SUBLIME
And to all the other p2p grps past and present

Looking for : SYNCERS, CAMMERS, SEED/RiPBOXES for group use
CAPPERS, SiLVER SUPPLiERS, and R1-R2-R4 PRE-RETAiL SOURCE SUPPLIERS!
Always looking for CAM+LiNE+SCR+DVDSCR+BRSCR+RUS DVD+PRERETAIL BR & DVD
If you'd like to help, feel free to contact us at thedanishpirates@gmail.com